<?xml version="1.0" encoding="utf-8"?>
<!-- Generator: Adobe Illustrator 16.0.0, SVG Export Plug-In . SVG Version: 6.00 Build 0)  -->
<!DOCTYPE svg PUBLIC "-//W3C//DTD SVG 1.0//EN" "http://www.w3.org/TR/2001/REC-SVG-20010904/DTD/svg10.dtd">
<svg version="1.0" id="Layer_1" xmlns="http://www.w3.org/2000/svg" xmlns:xlink="http://www.w3.org/1999/xlink" x="0px" y="0px"
	 width="100px" height="100px" viewBox="0 0 100 100" enable-background="new 0 0 100 100" xml:space="preserve">
<path d="M70,16.667c-3.682,0-6.667,2.985-6.667,6.667v20c0,3.686-2.984,6.667-6.666,6.667V16.667C56.667,12.985,53.682,10,50,10
	s-6.667,2.985-6.667,6.667v46.667c-3.682,0-6.666-2.981-6.666-6.666v-20C36.667,32.985,33.682,30,30,30s-6.667,2.985-6.667,6.667v20
	c0,11.048,8.959,20,20,20V90h13.334V63.333c11.041,0,20-8.951,20-20v-20C76.667,19.651,73.682,16.667,70,16.667z"/>
</svg>
