<?xml version="1.0" encoding="utf-8"?>
<!-- Generator: Adobe Illustrator 16.0.0, SVG Export Plug-In . SVG Version: 6.00 Build 0)  -->
<!DOCTYPE svg PUBLIC "-//W3C//DTD SVG 1.0//EN" "http://www.w3.org/TR/2001/REC-SVG-20010904/DTD/svg10.dtd">
<svg version="1.0" id="Layer_1" xmlns="http://www.w3.org/2000/svg" xmlns:xlink="http://www.w3.org/1999/xlink" x="0px" y="0px"
	 width="100px" height="100px" viewBox="0 0 100 100" enable-background="new 0 0 100 100" xml:space="preserve">
<path d="M87.138,39.996c-0.374-0.374-0.787-0.684-1.207-0.983c4.029-5.078,5.078-10.921,2.193-13.805
	c-2.887-2.884-8.727-1.836-13.805,2.194c-0.3-0.417-0.609-0.833-0.983-1.208c-3.814-3.815-9.996-3.815-13.812,0
	c-3.809,3.809-3.812,9.99,0,13.802c0.762,0.762,2.526,2.526,4.548,4.551l-8.617,8.617c-0.931,0.931-1.764,1.927-2.555,2.949
	c-1.013-6.137-3.871-11.797-8.356-16.283l-8.616-8.616c2.024-2.025,3.785-3.786,4.547-4.548c3.815-3.815,3.813-9.993,0-13.805
	c-3.814-3.815-9.993-3.815-13.808,0c-0.378,0.378-0.688,0.791-0.983,1.208c-5.081-4.03-10.925-5.078-13.809-2.197
	c-2.884,2.891-1.836,8.73,2.194,13.805c-0.417,0.306-0.834,0.615-1.211,0.989c-3.809,3.812-3.809,9.997,0,13.809
	c3.814,3.809,9.993,3.815,13.809,0c0.762-0.762,2.525-2.522,4.547-4.547l8.616,8.616c4.408,4.408,6.836,10.271,6.836,16.504v28.951
	h6.667V74.381c0-6.233,2.429-12.096,6.836-16.504l8.62-8.62c2.021,2.025,3.785,3.786,4.547,4.547c3.812,3.815,9.99,3.813,13.802,0
	C90.953,49.993,90.953,43.811,87.138,39.996z"/>
<path d="M29.822,70.182c-5.856-5.859-13.773-7.441-17.68-3.535c-3.905,3.906-2.32,11.82,3.539,17.676
	c5.855,5.859,13.772,7.441,17.679,3.535S35.681,76.038,29.822,70.182z"/>
</svg>
