<?xml version="1.0" encoding="utf-8"?>
<!-- Generator: Adobe Illustrator 16.0.0, SVG Export Plug-In . SVG Version: 6.00 Build 0)  -->
<!DOCTYPE svg PUBLIC "-//W3C//DTD SVG 1.0//EN" "http://www.w3.org/TR/2001/REC-SVG-20010904/DTD/svg10.dtd">
<svg version="1.0" id="Layer_1" xmlns="http://www.w3.org/2000/svg" xmlns:xlink="http://www.w3.org/1999/xlink" x="0px" y="0px"
	 width="100px" height="100px" viewBox="0 0 100 100" enable-background="new 0 0 100 100" xml:space="preserve">
<path d="M42.356,37.645l-1.81-1.81c-1.514-15.442-14.266-26.66-30.498-25.788C9.173,26.281,20.394,39.035,35.834,40.548l1.808,1.81
	c3.669,3.672,5.69,8.548,5.69,13.734v1.049c-5.231-8.832-15.034-14.382-26.62-13.76c-0.892,16.527,10.749,29.459,26.62,30.586
	v16.034h6.665V56.092C49.998,49.122,47.283,42.573,42.356,37.645z"/>
<path d="M86.639,35.027c0.527,9.707-6.908,17.143-16.608,16.618C69.496,41.941,76.932,34.506,86.639,35.027z"/>
<path d="M39.979,89.979c-7.764,0.42-13.716-5.53-13.292-13.291C34.446,76.262,40.395,82.212,39.979,89.979z"/>
<path d="M89.952,52.648c-11.585-0.625-21.387,4.922-26.621,13.753V49.802c9.851-11.988,8.767-28.941-3.327-39.801
	c-12.103,10.859-13.187,27.813-3.34,39.798v40.202h6.667v-6.773C79.203,82.102,90.841,69.172,89.952,52.648z"/>
</svg>
