<?xml version="1.0" encoding="utf-8"?>
<!-- Generator: Adobe Illustrator 16.0.0, SVG Export Plug-In . SVG Version: 6.00 Build 0)  -->
<!DOCTYPE svg PUBLIC "-//W3C//DTD SVG 1.0//EN" "http://www.w3.org/TR/2001/REC-SVG-20010904/DTD/svg10.dtd">
<svg version="1.0" id="Layer_1" xmlns="http://www.w3.org/2000/svg" xmlns:xlink="http://www.w3.org/1999/xlink" x="0px" y="0px"
	 width="100px" height="100px" viewBox="0 0 100 100" enable-background="new 0 0 100 100" xml:space="preserve">
<path d="M46.667,49.941c22.51,0.505,38.633-16.67,36.471-39.746c-16.78-1.572-30.449,6.527-36.471,19.71V10l-0.098,0.049
	C29.135,9.134,15.776,22.51,16.715,39.955c9.544,0.514,17.85-3.271,23.286-9.646v28.219c-6.375,5.912-14.595,9.187-23.333,9.187
	v6.667c8.446,0,16.488-2.559,23.288-7.27c-0.243,8.981-7.585,16.221-16.621,16.221V90c9.229,0,17.2-5.4,20.983-13.196
	c4.231,5.957,11.172,9.863,19.017,9.863V80c-7.76,0-14.241-5.354-16.087-12.546c8.522,5.954,18.701,9.213,29.421,9.213V70
	c-11.267,0-21.85-4.099-30-11.507V49.941z"/>
</svg>
