<?xml version="1.0" encoding="utf-8"?>
<!-- Generator: Adobe Illustrator 16.0.0, SVG Export Plug-In . SVG Version: 6.00 Build 0)  -->
<!DOCTYPE svg PUBLIC "-//W3C//DTD SVG 1.0//EN" "http://www.w3.org/TR/2001/REC-SVG-20010904/DTD/svg10.dtd">
<svg version="1.0" id="Layer_1" xmlns="http://www.w3.org/2000/svg" xmlns:xlink="http://www.w3.org/1999/xlink" x="0px" y="0px"
	 width="100px" height="100px" viewBox="0 0 100 100" enable-background="new 0 0 100 100" xml:space="preserve">
<path d="M82.755,54.724c5.632-5.635,7.923-13.405,7.073-21.222c-7.809-0.843-15.586,1.449-21.208,7.071
	c-4.102,4.102-5.58,9.525-4.141,13.565l-7.409,7.408c-1.328,1.328-2.578,2.949-3.737,4.724V63.33c0-8.252-4.57-19.287-10.404-25.117
	l-7.408-7.406c1.44-4.04-0.039-9.466-4.139-13.567c-5.623-5.622-13.401-7.914-21.209-7.071c-0.852,7.816,1.442,15.586,7.072,21.221
	c4.097,4.092,9.523,5.569,13.563,4.131l2.837,2.839c-0.107-0.003-0.207-0.026-0.316-0.026c-7.949,0-15.07,3.88-19.995,9.997
	c4.925,6.13,12.041,10,20.006,10.003c4.76-0.003,8.907-1.891,11.265-4.71c1.262,3.356,2.063,6.813,2.063,9.707v26.671h6.666v-3.337
	c0-3.35,1.045-7.457,2.676-11.282c0.654,2.565,2.067,5.166,4.281,7.38c5.621,5.621,13.401,7.913,21.205,7.07
	c0.853-7.813-1.438-15.584-7.071-21.219c-3.073-3.073-6.897-4.655-10.325-4.668l5.094-5.091
	C73.229,60.293,78.66,58.815,82.755,54.724z"/>
<path d="M66.357,25c2.933-2.903,4.323-5.755,3.317-7.5c-1.01-1.745-4.174-1.966-8.154-0.879c-1.049-3.995-2.822-6.622-4.838-6.622
	c-2.015,0-3.789,2.627-4.84,6.622c-3.978-1.087-7.143-0.862-8.151,0.879c-1.006,1.745,0.383,4.597,3.314,7.5
	c-2.933,2.904-4.32,5.755-3.314,7.5c1.008,1.745,4.173,1.969,8.154,0.879C52.894,37.373,54.668,40,56.683,40
	c2.016,0,3.789-2.627,4.838-6.622c3.98,1.09,7.145,0.866,8.154-0.879C70.681,30.755,69.294,27.903,66.357,25z M56.683,29.166
	c-2.295,0-4.166-1.865-4.166-4.167s1.871-4.167,4.166-4.167S60.85,22.698,60.85,25S58.978,29.166,56.683,29.166z"/>
<path d="M32.992,75.001c2.935-2.904,4.323-5.756,3.317-7.501c-1.007-1.741-4.171-1.966-8.152-0.879
	C27.106,62.627,25.331,60,23.317,60c-2.014,0-3.789,2.627-4.839,6.621c-3.981-1.087-7.146-0.862-8.153,0.879
	c-1.006,1.745,0.382,4.597,3.316,7.501c-2.935,2.903-4.322,5.755-3.316,7.5c1.007,1.741,4.172,1.966,8.155,0.879
	c1.048,3.991,2.824,6.621,4.837,6.621c2.013,0,3.789-2.627,4.837-6.621c3.983,1.087,7.147,0.866,8.154-0.876
	C37.314,80.756,35.928,77.904,32.992,75.001z M23.317,79.168c-2.295,0-4.167-1.865-4.167-4.167c0-2.303,1.872-4.168,4.167-4.168
	s4.167,1.865,4.167,4.168C27.484,77.303,25.612,79.168,23.317,79.168z"/>
</svg>
