<?xml version="1.0" encoding="utf-8"?>
<!-- Generator: Adobe Illustrator 16.0.0, SVG Export Plug-In . SVG Version: 6.00 Build 0)  -->
<!DOCTYPE svg PUBLIC "-//W3C//DTD SVG 1.0//EN" "http://www.w3.org/TR/2001/REC-SVG-20010904/DTD/svg10.dtd">
<svg version="1.0" id="Layer_1" xmlns="http://www.w3.org/2000/svg" xmlns:xlink="http://www.w3.org/1999/xlink" x="0px" y="0px"
	 width="100px" height="100px" viewBox="0 0 100 100" enable-background="new 0 0 100 100" xml:space="preserve">
<path d="M90,23.796c-11.182-1.627-21.748,1.009-29.036,8.297c-4.912,4.912-5.58,12.432-2.064,18.089l-0.293,0.293
	c-1.441,1.442-2.708,3.01-3.802,4.677c-1.582-4.499-4.134-8.636-7.604-12.105l-0.238-0.238c4.646-6.849,3.948-16.234-2.119-22.298
	C36.095,11.765,23.418,8.601,10,10.558c4.053,4.053,6.037,10.179,4.979,17.422c-1.06,7.243,0.924,13.369,4.976,17.425
	c6.061,6.061,15.446,6.754,22.293,2.119l0.239,0.238c4.844,4.843,7.51,11.279,7.51,18.125V90h6.666l0.004-18.753
	c0.006-6.074,2.369-11.774,6.653-16.055l0.296-0.296c5.658,3.519,13.178,2.852,18.09-2.064c3.375-3.375,5.025-8.482,4.146-14.518
	C84.971,32.279,86.621,27.175,90,23.796z"/>
</svg>
