<?xml version="1.0" encoding="utf-8"?>
<!-- Generator: Adobe Illustrator 16.0.0, SVG Export Plug-In . SVG Version: 6.00 Build 0)  -->
<!DOCTYPE svg PUBLIC "-//W3C//DTD SVG 1.0//EN" "http://www.w3.org/TR/2001/REC-SVG-20010904/DTD/svg10.dtd">
<svg version="1.0" id="Layer_1" xmlns="http://www.w3.org/2000/svg" xmlns:xlink="http://www.w3.org/1999/xlink" x="0px" y="0px"
	 width="100px" height="100px" viewBox="0 0 100 100" enable-background="new 0 0 100 100" xml:space="preserve">
<path d="M61.529,67.097l-4.863,4.859V58.333c0-1.777-0.469-3.802-1.243-5.709L89.999,18.05c-7.809-7.813-22.584-5.703-32.997,4.711
	c-5.99,5.986-9.212,13.408-9.404,20.123l-2.767-2.767C42.012,23.372,27.409,10.303,10,10c0.303,17.409,13.371,32.008,30.114,34.827
	l7.328,7.328C48.756,53.47,50,56.472,50,58.333v3.835c-1.872-2.236-4.095-4.323-6.687-6.14C31.247,47.578,16.334,48.072,10,57.119
	L50,85.13V90h6.666v-8.62l9.577-9.573c14.788-0.863,25.094-12.698,23.616-28.334C74.229,42.002,62.389,52.305,61.529,67.097z"/>
</svg>
