<?xml version="1.0" encoding="utf-8"?>
<!-- Generator: Adobe Illustrator 16.0.0, SVG Export Plug-In . SVG Version: 6.00 Build 0)  -->
<!DOCTYPE svg PUBLIC "-//W3C//DTD SVG 1.0//EN" "http://www.w3.org/TR/2001/REC-SVG-20010904/DTD/svg10.dtd">
<svg version="1.0" id="Layer_1" xmlns="http://www.w3.org/2000/svg" xmlns:xlink="http://www.w3.org/1999/xlink" x="0px" y="0px"
	 width="100px" height="100px" viewBox="0 0 100 100" enable-background="new 0 0 100 100" xml:space="preserve">
<path d="M43.724,39.011l-1.779-1.781c1.641-18.649-11.606-30.338-31.217-26.5c-3.836,19.609,7.854,32.858,26.504,31.217l1.779,1.777
	c3.197,3.196,4.955,7.441,4.955,11.957h6.667C50.632,49.167,47.985,43.271,43.724,39.011z"/>
<path d="M84.365,10c-19.584,3.958-27.354,19.827-18.698,36.432l-0.964,2.324C62.398,54.326,62.21,60.788,64.7,66.8l6.159-2.549
	c-1.726-4.17-1.726-8.766,0.003-12.942l0.964-2.324C89.688,43.363,95.413,26.65,84.365,10z"/>
<path d="M64.251,81.295c-4.173,1.723-8.77,1.726-12.942-0.003l-2.324-0.964C43.364,62.468,26.649,56.738,10,67.786
	c3.962,19.59,19.831,27.356,36.432,18.701l2.328,0.964c5.569,2.305,12.027,2.493,18.037,0L64.251,81.295z"/>
</svg>
