<?xml version="1.0" encoding="utf-8"?>
<!-- Generator: Adobe Illustrator 16.0.0, SVG Export Plug-In . SVG Version: 6.00 Build 0)  -->
<!DOCTYPE svg PUBLIC "-//W3C//DTD SVG 1.0//EN" "http://www.w3.org/TR/2001/REC-SVG-20010904/DTD/svg10.dtd">
<svg version="1.0" id="Layer_1" xmlns="http://www.w3.org/2000/svg" xmlns:xlink="http://www.w3.org/1999/xlink" x="0px" y="0px"
	 width="100px" height="100px" viewBox="0 0 100 100" enable-background="new 0 0 100 100" xml:space="preserve">
<path d="M36.667,58.333h3.335c3.625,0,7.075,1.396,9.999,3.962c2.923-2.565,6.374-3.962,10-3.962h3.333
	c0.915,0,1.816-0.127,2.702-0.354C68.46,40.97,63.157,23.08,50.003,10C36.842,23.08,31.54,40.97,33.966,57.979
	C34.849,58.206,35.752,58.333,36.667,58.333z"/>
<path d="M71.667,50.003c0,1.638-0.111,3.252-0.238,4.863c0.473-0.442,0.957-0.865,1.391-1.39c3.277-3.965,7.396-6.615,11.907-7.787
	c1.963-8.786,2.51-17.617,1.286-25.69c-5.928,4.369-11.254,10.215-15.785,16.895C71.152,41.159,71.667,45.537,71.667,50.003z"/>
<path d="M27.183,53.479c0.433,0.524,0.917,0.947,1.39,1.391c-0.125-1.615-0.238-3.229-0.238-4.867c0-4.462,0.514-8.844,1.439-13.105
	C25.239,30.218,19.916,24.369,13.986,20c-1.224,8.073-0.677,16.904,1.286,25.69C19.785,46.862,23.901,49.512,27.183,53.479z"/>
<path d="M53.33,66.032c1.963-1.706,4.238-2.699,6.67-2.699h3.333c4.824,0,9.655-2.22,13.34-6.666C80.345,52.224,85.176,50,90,50
	c0,19.229-13.574,35.28-31.663,39.118v-5.785C58.337,76.55,56.438,70.495,53.33,66.032z"/>
<path d="M10,50c0,22.087,17.907,40,40,40c1.126,0,2.233-0.078,3.337-0.169v-6.498c0-11.041-5.967-20-13.333-20h-3.337
	c-4.824,0-9.651-2.22-13.336-6.666C19.655,52.224,14.824,50,10,50z"/>
</svg>
