<?xml version="1.0" encoding="utf-8"?>
<!-- Generator: Adobe Illustrator 16.0.0, SVG Export Plug-In . SVG Version: 6.00 Build 0)  -->
<!DOCTYPE svg PUBLIC "-//W3C//DTD SVG 1.0//EN" "http://www.w3.org/TR/2001/REC-SVG-20010904/DTD/svg10.dtd">
<svg version="1.0" id="Layer_1" xmlns="http://www.w3.org/2000/svg" xmlns:xlink="http://www.w3.org/1999/xlink" x="0px" y="0px"
	 width="100px" height="100px" viewBox="0 0 100 100" enable-background="new 0 0 100 100" xml:space="preserve">
<path d="M53.334,75.921v-2.588c0-5.342,2.08-10.361,5.858-14.141l7.546-7.546c4.951,2.747,11.292,2.073,15.498-2.131
	c6.816-6.813,9.222-16.637,6.907-25.322c-8.685-2.318-18.512,0.084-25.328,6.901c-4.33,4.33-4.936,10.937-1.898,15.947l-7.438,7.438
	c-0.515,0.515-0.993,1.058-1.465,1.611c-0.853-5.793-3.542-10.993-7.494-14.944l-1.55-1.553c4.147-6.188,3.496-14.635-1.973-20.101
	c-8.333-8.333-20.339-11.276-30.95-8.444c-2.832,10.612,0.107,22.624,8.438,30.957c5.345,5.345,13.538,6.061,19.681,2.217
	l1.641,1.637c3.779,3.779,5.859,8.798,5.859,14.14v15.934C33.991,76.351,21.566,79.048,10,83.841l2.552,6.158
	c24.146-10.006,50.751-10.01,74.899-0.016L90,83.823C77.991,78.853,65.593,76.308,53.334,75.921z"/>
</svg>
