<?xml version="1.0" encoding="utf-8"?>
<!-- Generator: Adobe Illustrator 16.0.0, SVG Export Plug-In . SVG Version: 6.00 Build 0)  -->
<!DOCTYPE svg PUBLIC "-//W3C//DTD SVG 1.0//EN" "http://www.w3.org/TR/2001/REC-SVG-20010904/DTD/svg10.dtd">
<svg version="1.0" id="Layer_1" xmlns="http://www.w3.org/2000/svg" xmlns:xlink="http://www.w3.org/1999/xlink" x="0px" y="0px"
	 width="100px" height="100px" viewBox="0 0 100 100" enable-background="new 0 0 100 100" xml:space="preserve">
<path d="M90,41.025c0-7.005-5.684-12.692-12.688-12.692c-0.385,0-0.756,0.046-1.137,0.063c-1.263,8.069-5.152,15.521-11.354,21.38
	c-1.982,1.878-4.157,3.522-6.488,4.954v1.938c0,3.287,0.473,6.5,1.335,9.586c5.114,3.412,11.149,5.414,17.644,5.414
	C84.316,71.667,90,65.986,90,58.975c0-3.506-1.423-6.677-3.718-8.975C88.577,47.702,90,44.531,90,41.025z"/>
<path d="M58.975,10c-3.506,0-6.677,1.423-8.975,3.718C47.702,11.423,44.531,10,41.022,10c-7.002,0-12.689,5.684-12.689,12.688
	c0,0.385,0.046,0.756,0.059,1.137c8.076,1.263,15.527,5.152,21.387,11.354c3.529,3.728,6.293,8.103,8.21,12.995l0.231,0.586
	c1.104-0.817,2.174-1.677,3.167-2.617c6.354-6.006,10.28-14.294,10.28-23.454C71.667,15.684,65.986,10,58.975,10z"/>
<path d="M65.192,85.286c-7.646-7.646-11.859-17.813-11.859-28.619V50c-1.686-4.297-4.134-8.157-7.19-11.387
	c-6.006-6.354-14.294-10.28-23.454-10.28C15.684,28.333,10,34.014,10,41.025c0,3.506,1.423,6.677,3.718,8.975
	C11.423,52.298,10,55.469,10,58.978c0,7.002,5.684,12.689,12.688,12.689c9.16,0,17.448-3.933,23.454-10.28
	c0.251-0.267,0.476-0.563,0.72-0.84C47.8,72.012,52.806,82.327,60.479,90L65.192,85.286z"/>
</svg>
