<?xml version="1.0" encoding="utf-8"?>
<!-- Generator: Adobe Illustrator 16.0.0, SVG Export Plug-In . SVG Version: 6.00 Build 0)  -->
<!DOCTYPE svg PUBLIC "-//W3C//DTD SVG 1.0//EN" "http://www.w3.org/TR/2001/REC-SVG-20010904/DTD/svg10.dtd">
<svg version="1.0" id="Layer_1" xmlns="http://www.w3.org/2000/svg" xmlns:xlink="http://www.w3.org/1999/xlink" x="0px" y="0px"
	 width="100px" height="100px" viewBox="0 0 100 100" enable-background="new 0 0 100 100" xml:space="preserve">
<circle cx="20" cy="50" r="10"/>
<circle cx="46.667" cy="76.667" r="10"/>
<path d="M63.499,40.977C60.469,25.225,46.628,13.32,30,13.333c0,14.838,9.482,27.432,22.702,32.133
	c-7.891,3.961-15.192,9.186-21.621,15.615l-6.66,6.66c-1.338-0.668-2.826-1.074-4.421-1.074c-5.521,0-10,4.476-10,10
	c0,5.523,4.479,10,10,10s10-4.477,10-10c0-1.484-0.345-2.885-0.925-4.15l6.719-6.723C50.28,51.309,69.528,43.333,90,43.333v-6.666
	C80.85,36.667,71.934,38.154,63.499,40.977z"/>
<path d="M80,19.997c-7.366,0-13.333,5.967-13.333,13.336C74.033,33.333,80.007,27.363,80,19.997z"/>
<path d="M66.663,51.719C58.851,59.531,58.854,72.188,66.667,80C74.479,72.188,74.479,59.519,66.663,51.719z"/>
</svg>
