<?xml version="1.0" encoding="utf-8"?>
<!-- Generator: Adobe Illustrator 16.0.0, SVG Export Plug-In . SVG Version: 6.00 Build 0)  -->
<!DOCTYPE svg PUBLIC "-//W3C//DTD SVG 1.0//EN" "http://www.w3.org/TR/2001/REC-SVG-20010904/DTD/svg10.dtd">
<svg version="1.0" id="Layer_1" xmlns="http://www.w3.org/2000/svg" xmlns:xlink="http://www.w3.org/1999/xlink" x="0px" y="0px"
	 width="100px" height="100px" viewBox="0 0 100 100" enable-background="new 0 0 100 100" xml:space="preserve">
<path d="M50,10c-25.483,21.102-26.551,54.727-3.333,76.946v-60.28h6.667v60.28C76.55,64.727,75.481,31.102,50,10z"/>
<path d="M29.002,90h13.62C31.24,78.864,24.999,64.854,24.999,49.974c0-1.971,0.127-3.925,0.342-5.862
	c-4.772-0.77-9.792-1.016-15.061-0.521C8.433,63.235,15.885,79.886,29.002,90z"/>
<path d="M70.996,90h-13.62C68.76,78.864,75,64.854,75,49.974c0-1.971-0.124-3.925-0.339-5.862c4.772-0.77,9.792-1.016,15.059-0.521
	C91.569,63.235,84.114,79.886,70.996,90z"/>
</svg>
