<?xml version="1.0" encoding="utf-8"?>
<!-- Generator: Adobe Illustrator 16.0.0, SVG Export Plug-In . SVG Version: 6.00 Build 0)  -->
<!DOCTYPE svg PUBLIC "-//W3C//DTD SVG 1.0//EN" "http://www.w3.org/TR/2001/REC-SVG-20010904/DTD/svg10.dtd">
<svg version="1.0" id="Layer_1" xmlns="http://www.w3.org/2000/svg" xmlns:xlink="http://www.w3.org/1999/xlink" x="0px" y="0px"
	 width="100px" height="100px" viewBox="0 0 100 100" enable-background="new 0 0 100 100" xml:space="preserve">
<path d="M86.568,23.334c-7.543,2.207-13.848,7.305-16.892,14.648c-1.663,4.017-0.484,8.47,2.568,11.224l-0.234,0.566
	c-2.066,4.99-5.957,8.88-10.953,10.95l-2.314,0.957c2.415-4.088,3.733-8.753,3.733-13.626c0-7.188-2.8-13.945-7.881-19.026
	l-0.433-0.433c1.768-3.714,1.152-8.278-1.924-11.351c-5.622-5.622-13.402-7.919-21.212-7.073c-0.85,7.813,1.449,15.592,7.072,21.214
	c3.073,3.076,7.637,3.691,11.351,1.924l0.434,0.433c3.821,3.825,5.927,8.903,5.927,14.313c0,1.133-0.113,2.249-0.296,3.347
	l-1.035,0.43c-5,2.07-10.498,2.07-15.488,0l-0.563-0.234c0.21-4.105-2.106-8.086-6.123-9.75C24.959,38.803,16.893,39.655,10,43.432
	c2.207,7.539,7.305,13.848,14.652,16.888c4.015,1.667,8.468,0.488,11.224-2.565l0.563,0.234c5.088,2.109,10.573,2.585,15.853,1.459
	c-0.706,1.031-1.504,2.012-2.408,2.913l-3.333,3.333c-4.753,4.749-7.478,10.974-7.814,17.64H20V90h59.999v-6.667H45.402
	c0.257-3.818,1.57-7.422,3.803-10.484l14.404-5.967c6.641-2.754,11.813-7.923,14.561-14.558l0.234-0.566
	c4.107,0.212,8.089-2.105,9.749-6.123C91.2,38.292,90.341,30.225,86.568,23.334z"/>
</svg>
