<?xml version="1.0" encoding="utf-8"?>
<!-- Generator: Adobe Illustrator 16.0.0, SVG Export Plug-In . SVG Version: 6.00 Build 0)  -->
<!DOCTYPE svg PUBLIC "-//W3C//DTD SVG 1.0//EN" "http://www.w3.org/TR/2001/REC-SVG-20010904/DTD/svg10.dtd">
<svg version="1.0" id="Layer_1" xmlns="http://www.w3.org/2000/svg" xmlns:xlink="http://www.w3.org/1999/xlink" x="0px" y="0px"
	 width="100px" height="100px" viewBox="0 0 100 100" enable-background="new 0 0 100 100" xml:space="preserve">
<path d="M69.192,64.479l-0.576-0.576c-2.695-2.699-5.889-4.697-9.365-5.954l9.941-9.941c4.04,1.442,9.467-0.033,13.568-4.134
	c5.624-5.628,7.913-13.405,7.069-21.21c-7.812-0.853-15.585,1.445-21.22,7.07c-4.092,4.098-5.573,9.524-4.131,13.561l-7.575,7.572
	c0.02-0.43,0.062-0.856,0.062-1.29c0-6.875-2.676-13.333-7.535-18.193l-0.576-0.576c1.438-4.037-0.039-9.466-4.139-13.568
	c-5.624-5.622-13.402-7.914-21.209-7.07c-0.851,7.816,1.442,15.586,7.072,21.221c4.097,4.092,9.523,5.569,13.563,4.131l0.576,0.576
	c3.6,3.6,5.583,8.389,5.583,13.479c0,5.091-1.983,9.876-5.582,13.473c-2.036,2.035-3.662,4.359-4.896,6.865
	c-0.08-0.029-0.163-0.049-0.243-0.081c-4.704-1.95-8.369-5.612-10.317-10.315l-0.311-0.752c2.877-3.181,3.589-8.76,1.374-14.112
	C27.275,37.298,20.972,32.207,13.428,30c-3.768,6.891-4.627,14.955-1.583,22.302c2.218,5.357,6.667,8.799,10.949,9.014l0.311,0.752
	c2.63,6.351,7.575,11.295,13.926,13.926c0.21,0.088,0.426,0.146,0.638,0.228c-0.322,1.638-0.488,3.313-0.488,5.02
	c-0.002,3.037,0.552,5.986,1.554,8.76h7.334c-1.398-2.686-2.222-5.645-2.222-8.76c0-5.091,1.98-9.876,5.584-13.474l4.29-4.29
	c3.828,0.654,7.38,2.337,10.183,5.14l0.576,0.576c-1.439,4.04,0.039,9.467,4.131,13.562c5.631,5.631,13.404,7.923,21.22,7.073
	c0.844-7.81-1.448-15.586-7.069-21.211C78.659,64.519,73.232,63.04,69.192,64.479z"/>
</svg>
