<?xml version="1.0" encoding="utf-8"?>
<!-- Generator: Adobe Illustrator 16.0.0, SVG Export Plug-In . SVG Version: 6.00 Build 0)  -->
<!DOCTYPE svg PUBLIC "-//W3C//DTD SVG 1.0//EN" "http://www.w3.org/TR/2001/REC-SVG-20010904/DTD/svg10.dtd">
<svg version="1.0" id="Layer_1" xmlns="http://www.w3.org/2000/svg" xmlns:xlink="http://www.w3.org/1999/xlink" x="0px" y="0px"
	 width="100px" height="100px" viewBox="0 0 100 100" enable-background="new 0 0 100 100" xml:space="preserve">
<path d="M86.603,26.667c-15.007,4.623-21.999,18.672-17.136,32.667L62.172,76.94c-0.484,1.168-1.24,2.412-2.168,3.636V46.735
	c9.848-11.067,8.76-26.722-3.333-36.735C44.574,20.013,43.49,35.667,53.338,46.732v8.747c-0.449-0.557-0.908-1.097-1.381-1.572
	L38.476,40.423c-0.863-14.785-12.697-25.085-28.332-23.617c-1.471,15.635,8.832,27.471,23.62,28.333l13.479,13.48
	c3.246,3.245,6.095,10.12,6.095,14.713v8.62l-8.194-8.193c-0.862-14.788-12.698-25.091-28.333-23.62
	c-1.472,15.635,8.828,27.468,23.616,28.33L51.957,90h8.305c3.502-3.011,6.565-6.875,8.069-10.508l7.295-17.617
	C88.959,55.42,93.946,40.547,86.603,26.667z"/>
</svg>
