<?xml version="1.0" encoding="utf-8"?>
<!-- Generator: Adobe Illustrator 16.0.0, SVG Export Plug-In . SVG Version: 6.00 Build 0)  -->
<!DOCTYPE svg PUBLIC "-//W3C//DTD SVG 1.0//EN" "http://www.w3.org/TR/2001/REC-SVG-20010904/DTD/svg10.dtd">
<svg version="1.0" id="Layer_1" xmlns="http://www.w3.org/2000/svg" xmlns:xlink="http://www.w3.org/1999/xlink" x="0px" y="0px"
	 width="100px" height="100px" viewBox="0 0 100 100" enable-background="new 0 0 100 100" xml:space="preserve">
<path d="M70,70c-5.794,0.007-10.674,2.796-12.513,6.667H47.52c0.377-2.143,0.859-4.252,1.416-6.345
	c3.636-2.321,7.474-4.372,11.543-6.058l0.759-0.313c3.18,2.881,8.756,3.587,14.117,1.367C82.705,62.275,87.806,55.974,90,48.431
	c-6.892-3.776-14.941-4.629-22.305-1.589c-5.349,2.224-8.786,6.67-9.004,10.948l-0.762,0.315c-2.021,0.84-3.972,1.79-5.896,2.783
	c3.779-9.16,9.365-17.572,16.579-24.789l0.576-0.576c4.04,1.442,9.47-0.036,13.567-4.137c5.625-5.625,7.92-13.405,7.07-21.214
	c-7.813-0.85-15.586,1.445-21.214,7.074c-4.099,4.098-5.573,9.521-4.134,13.561l-0.58,0.58c-4.104,4.105-7.711,8.574-10.82,13.32
	l-2.457-5.938c2.877-3.18,3.587-8.763,1.37-14.121C48.945,17.298,42.635,12.204,35.098,10c-3.776,6.891-4.629,14.955-1.585,22.305
	c2.22,5.355,6.665,8.792,10.947,9.01l4.401,10.622c-1.24,2.396-2.36,4.848-3.356,7.348c-3.297-2.38-6.471-4.968-9.404-7.897
	l-0.576-0.579c1.442-4.04-0.039-9.47-4.139-13.568c-5.625-5.625-13.407-7.917-21.213-7.07c-0.851,7.813,1.445,15.586,7.072,21.217
	c4.098,4.099,9.524,5.573,13.563,4.134l0.58,0.58c3.661,3.662,7.611,6.924,11.789,9.791c-1.544,5.114-2.596,10.397-3.13,15.791
	c-1.349-1.158-2.674-2.354-3.947-3.626l-0.58-0.579c1.445-4.04-0.037-9.467-4.141-13.568c-5.623-5.625-13.396-7.926-21.204-7.066
	c-0.854,7.813,1.442,15.576,7.068,21.214c4.099,4.092,9.521,5.563,13.558,4.131l0.583,0.583c2.595,2.588,8.252,7.178,8.252,7.229
	h6.667c0-2.239,0.137-4.46,0.325-6.667h10.856C59.319,87.21,64.202,90,70,90c7.956,0,15.085-3.874,20-10
	C85.078,73.874,77.962,70.007,70,70z"/>
</svg>
