<?xml version="1.0" encoding="utf-8"?>
<!-- Generator: Adobe Illustrator 16.0.0, SVG Export Plug-In . SVG Version: 6.00 Build 0)  -->
<!DOCTYPE svg PUBLIC "-//W3C//DTD SVG 1.0//EN" "http://www.w3.org/TR/2001/REC-SVG-20010904/DTD/svg10.dtd">
<svg version="1.0" id="Layer_1" xmlns="http://www.w3.org/2000/svg" xmlns:xlink="http://www.w3.org/1999/xlink" x="0px" y="0px"
	 width="100px" height="100px" viewBox="0 0 100 100" enable-background="new 0 0 100 100" xml:space="preserve">
<path d="M77.034,31.999l-3.535-12.962L60.534,31.999c-3.728,3.73-4.35,9.339-1.973,13.757l-0.385,0.384
	c-4.739,4.737-8.57,10.127-11.51,15.941V39.459C51.472,38.014,55,33.61,55,28.333V10l-11.667,6.667L31.667,10v18.333
	c0,5.276,3.527,9.681,8.333,11.126V90h6.67c0-14.795,5.759-28.698,16.221-39.144l0.384-0.385c4.421,2.38,10.029,1.758,13.76-1.972
	L90,35.534L77.034,31.999z"/>
<path d="M21.667,46.667L10,40v18.333c0,5.277,3.527,9.682,8.333,11.127V90H25V69.46c4.806-1.445,8.333-5.85,8.333-11.127V40
	L21.667,46.667z"/>
</svg>
