<?xml version="1.0" encoding="utf-8"?>
<!-- Generator: Adobe Illustrator 16.0.0, SVG Export Plug-In . SVG Version: 6.00 Build 0)  -->
<!DOCTYPE svg PUBLIC "-//W3C//DTD SVG 1.0//EN" "http://www.w3.org/TR/2001/REC-SVG-20010904/DTD/svg10.dtd">
<svg version="1.0" id="Layer_1" xmlns="http://www.w3.org/2000/svg" xmlns:xlink="http://www.w3.org/1999/xlink" x="0px" y="0px"
	 width="100px" height="100px" viewBox="0 0 100 100" enable-background="new 0 0 100 100" xml:space="preserve">
<path d="M89.531,50.469c-8.421-1.556-17.259,0.755-23.571,7.073c-3.73,3.73-4.355,9.34-1.973,13.757L53.333,81.956V56.331
	C60.94,54.785,66.667,48.063,66.667,40c0-12.363-6.589-23.281-16.667-30c-10.078,6.719-16.667,17.637-16.667,30
	c0,5.631,2.829,10.566,7.108,13.581l2.892-20.248h3.333v48.623L36.013,71.299c2.381-4.417,1.758-10.026-1.973-13.757
	c-6.313-6.318-15.151-8.629-23.571-7.073c-1.558,8.421,0.757,17.259,7.072,23.571c3.729,3.733,9.339,4.355,13.758,1.976L45.283,90
	h9.434l13.984-13.987c4.417,2.383,10.026,1.761,13.757-1.973C88.772,67.728,91.087,58.89,89.531,50.469z"/>
</svg>
