<?xml version="1.0" encoding="utf-8"?>
<!-- Generator: Adobe Illustrator 16.0.0, SVG Export Plug-In . SVG Version: 6.00 Build 0)  -->
<!DOCTYPE svg PUBLIC "-//W3C//DTD SVG 1.0//EN" "http://www.w3.org/TR/2001/REC-SVG-20010904/DTD/svg10.dtd">
<svg version="1.0" id="Layer_1" xmlns="http://www.w3.org/2000/svg" xmlns:xlink="http://www.w3.org/1999/xlink" x="0px" y="0px"
	 width="100px" height="100px" viewBox="0 0 100 100" enable-background="new 0 0 100 100" xml:space="preserve">
<path d="M67.683,61.702c-3.767,2.175-5.541,6.423-4.799,10.469l-9.551,5.515v-8.848l14.655-17.471
	c3.854,1.436,8.347,0.423,11.14-2.907c5.303-6.318,6.953-14.431,5.195-21.748c-7.507-0.459-15.215,2.578-20.515,8.893
	c-2.793,3.327-3.008,7.93-0.928,11.475l-9.548,11.377V39.388C57.207,38.008,60,34.346,60,30c0-8.242-3.952-15.521-10-20
	c-6.048,4.479-10,11.758-10,20c0,4.346,2.792,8.011,6.667,9.388v19.069L37.119,47.08c2.08-3.545,1.865-8.148-0.929-11.475
	c-5.298-6.315-13.005-9.352-20.515-8.893c-1.756,7.317-0.105,15.43,5.195,21.748c2.792,3.33,7.285,4.342,11.14,2.907l14.656,17.471
	v8.848l-9.551-5.515c0.744-4.043-1.032-8.294-4.798-10.469C25.181,57.585,16.903,57.37,10,60.364
	c0.854,7.48,5.181,14.541,12.323,18.659c3.76,2.171,8.327,1.589,11.457-1.077l12.887,7.441V90h6.667v-4.612l12.888-7.441
	c3.132,2.666,7.698,3.248,11.455,1.077C84.817,74.905,89.147,67.845,90,60.364C83.099,57.37,74.817,57.585,67.683,61.702z"/>
</svg>
