<?xml version="1.0" encoding="utf-8"?>
<!-- Generator: Adobe Illustrator 16.0.0, SVG Export Plug-In . SVG Version: 6.00 Build 0)  -->
<!DOCTYPE svg PUBLIC "-//W3C//DTD SVG 1.0//EN" "http://www.w3.org/TR/2001/REC-SVG-20010904/DTD/svg10.dtd">
<svg version="1.0" id="Layer_1" xmlns="http://www.w3.org/2000/svg" xmlns:xlink="http://www.w3.org/1999/xlink" x="0px" y="0px"
	 width="100px" height="100px" viewBox="0 0 100 100" enable-background="new 0 0 100 100" xml:space="preserve">
<path d="M70,63.333c-5.794,0-10.677,2.793-12.517,6.667h-0.816c-5.954,0-11.579-2.083-16.07-5.882l21.304-21.306
	c5.374,2.744,12.955,1.188,18.44-4.297c7.497-7.497,10.56-17.871,9.431-28.288c-10.42-1.129-20.791,1.934-28.288,9.43
	c-5.481,5.485-7.038,13.063-4.297,18.441l-29.15,29.15l2.572-14.573c5.975-0.837,11.289-6.458,12.638-14.095
	c1.841-10.442-1.6-20.696-8.5-28.581c-9.183,5.049-15.923,13.509-17.764,23.949c-1.346,7.64,1.73,14.739,7.059,17.568l-4.225,23.952
	L10,85.286L14.713,90l21.169-21.169c5.758,5.049,13.05,7.836,20.785,7.836h0.816c1.84,3.873,6.723,6.666,12.517,6.666
	c7.956,0,15.078-3.88,20-10C85.078,67.207,77.956,63.333,70,63.333z"/>
</svg>
