<?xml version="1.0" encoding="utf-8"?>
<!-- Generator: Adobe Illustrator 16.0.0, SVG Export Plug-In . SVG Version: 6.00 Build 0)  -->
<!DOCTYPE svg PUBLIC "-//W3C//DTD SVG 1.0//EN" "http://www.w3.org/TR/2001/REC-SVG-20010904/DTD/svg10.dtd">
<svg version="1.0" id="Layer_1" xmlns="http://www.w3.org/2000/svg" xmlns:xlink="http://www.w3.org/1999/xlink" x="0px" y="0px"
	 width="100px" height="100px" viewBox="0 0 100 100" enable-background="new 0 0 100 100" xml:space="preserve">
<path d="M90,56.257c-2.852-4.805-6.833-8.601-11.582-10.892c3.577-3.601,6.045-8.278,7.224-13.525
	c-5.014-2.162-10.329-2.904-15.414-2.064c0.84-5.084,0.098-10.404-2.066-15.417c-5.248,1.182-9.926,3.649-13.525,7.223
	C52.344,16.83,48.548,12.852,43.742,10c-3.712,4.222-6.097,9.215-6.793,14.479c-4.561-2.344-9.823-3.268-15.231-2.76
	c-0.508,5.404,0.418,10.67,2.762,15.228c-5.264,0.696-10.26,3.079-14.479,6.797c2.848,4.805,6.831,8.6,11.583,10.892
	c-3.579,3.6-6.046,8.277-7.223,13.521c5.011,2.168,10.329,2.91,15.414,2.07c-0.84,5.082-0.098,10.4,2.065,15.414
	c5.249-1.176,9.927-3.646,13.525-7.227c2.295,4.752,6.087,8.74,10.892,11.585c3.717-4.222,6.1-9.216,6.797-14.479
	c4.561,2.344,9.82,3.269,15.23,2.764c0.505-5.41-0.42-10.67-2.764-15.23C80.784,62.356,85.778,59.971,90,56.257z M50,70
	c-11.042,0-20-8.958-20-20c0-11.042,8.958-20,20-20c11.042,0,20,8.958,20,20C70,61.042,61.042,70,50,70z"/>
<circle cx="50" cy="50" r="2.5"/>
<circle cx="50" cy="37.5" r="2.5"/>
<circle cx="50" cy="62.5" r="2.5"/>
<circle cx="39.175" cy="56.25" r="2.5"/>
<path d="M59.577,41.585c1.194-0.69,2.725-0.28,3.414,0.915c0.69,1.195,0.28,2.725-0.914,3.415c-1.198,0.69-2.729,0.28-3.418-0.915
	C57.969,43.805,58.379,42.275,59.577,41.585z"/>
<circle cx="60.827" cy="56.25" r="2.5"/>
<path d="M37.925,45.915c-1.195-0.69-1.605-2.22-0.915-3.415c0.688-1.198,2.22-1.605,3.415-0.918
	c1.196,0.697,1.606,2.227,0.917,3.418C40.651,46.198,39.121,46.608,37.925,45.915z"/>
</svg>
