<?xml version="1.0" encoding="utf-8"?>
<!-- Generator: Adobe Illustrator 16.0.0, SVG Export Plug-In . SVG Version: 6.00 Build 0)  -->
<!DOCTYPE svg PUBLIC "-//W3C//DTD SVG 1.0//EN" "http://www.w3.org/TR/2001/REC-SVG-20010904/DTD/svg10.dtd">
<svg version="1.0" id="Layer_1" xmlns="http://www.w3.org/2000/svg" xmlns:xlink="http://www.w3.org/1999/xlink" x="0px" y="0px"
	 width="100px" height="100px" viewBox="0 0 100 100" enable-background="new 0 0 100 100" xml:space="preserve">
<path d="M83.333,10H16.667C13.001,10,10,13.001,10,16.667v66.666C10,86.999,13.001,90,16.667,90h66.666
	C86.999,90,90,86.999,90,83.333V16.667C90,13.001,86.999,10,83.333,10z M80,33.333V40H64.714l-6.667,6.667H70v6.666H51.38L44.714,60
	h11.953v6.667h-18.62L24.714,80L20,75.286l13.333-13.333v-18.62H40v11.953l6.667-6.666V30h6.666v11.953L60,35.286V20h6.667v8.62
	L75.286,20L80,24.714l-8.62,8.619H80z"/>
</svg>
